<?xml version="1.0" standalone="no"?>
<!DOCTYPE svg PUBLIC "-//W3C//DTD SVG 20010904//EN"
 "http://www.w3.org/TR/2001/REC-SVG-20010904/DTD/svg10.dtd">
<svg version="1.0" xmlns="http://www.w3.org/2000/svg"
 width="134.000000pt" height="134.000000pt" viewBox="0 0 134.000000 134.000000"
 preserveAspectRatio="xMidYMid meet">
<metadata>
Created by potrace 1.11, written by Peter Selinger 2001-2013
</metadata>
<g transform="translate(0.000000,134.000000) scale(0.100000,-0.100000)"
fill="#000000" stroke="none">
<path d="M80 1291 c-70 -37 -68 -15 -71 -621 -4 -609 -6 -586 66 -629 36 -21
43 -21 598 -21 l562 0 37 25 c69 47 69 44 66 635 -3 579 -1 555 -68 605 l-34
25 -561 0 c-527 0 -562 -1 -595 -19z m624 -81 c13 -5 103 -67 198 -137 95 -71
205 -152 244 -180 67 -50 94 -84 94 -121 0 -9 -25 -96 -56 -192 -128 -395
-138 -422 -165 -442 -25 -19 -46 -20 -358 -21 l-333 -2 -22 26 c-27 32 -216
592 -216 641 0 40 35 74 209 198 73 52 178 128 234 168 101 72 124 80 171 62z"/>
<path d="M586 966 c-37 -39 -66 -50 -119 -47 -34 2 -44 -3 -78 -39 -38 -40
-51 -82 -29 -95 14 -8 -15 -62 -48 -90 -24 -21 -27 -31 -27 -85 0 -54 3 -65
26 -83 41 -36 58 -69 46 -94 -22 -51 52 -137 116 -135 55 2 97 -8 97 -23 0
-25 55 -55 103 -55 39 0 49 5 73 32 33 41 71 58 102 47 29 -11 60 2 97 41 24
25 30 40 30 78 1 56 19 102 39 102 23 0 36 33 36 92 0 49 -4 58 -41 98 -35 37
-40 48 -35 75 13 70 -41 137 -109 135 -66 -3 -70 -1 -113 40 -36 35 -46 40
-88 40 -40 0 -51 -5 -78 -34z m140 -31 c14 -19 35 -35 45 -35 10 0 21 -5 25
-11 4 -7 21 -9 47 -5 36 6 44 3 73 -25 29 -29 33 -37 28 -69 -8 -48 17 -107
51 -120 22 -8 25 -15 25 -55 0 -45 -16 -75 -40 -75 -19 0 -42 -71 -36 -111 5
-33 2 -40 -29 -67 -28 -25 -40 -30 -68 -25 -43 7 -105 -21 -120 -54 -9 -19
-18 -23 -57 -23 -40 0 -50 4 -64 25 -24 37 -72 58 -118 52 -31 -4 -44 0 -69
20 -25 21 -30 32 -28 62 5 59 -10 98 -47 126 -28 21 -34 33 -34 63 0 42 5 51
41 74 29 18 50 78 42 124 -4 25 1 35 27 57 35 30 43 32 69 17 13 -6 24 -5 37
5 11 8 26 15 35 15 8 0 29 16 46 35 23 26 40 35 62 35 23 0 37 -9 57 -35z"/>
<path d="M586 879 c-22 -5 -47 -16 -56 -24 -9 -8 -21 -15 -26 -15 -16 0 -76
-75 -96 -119 -29 -68 -33 -122 -14 -183 25 -75 60 -122 124 -165 49 -32 65
-37 132 -41 66 -4 84 -1 131 21 170 77 221 290 104 432 -58 72 -103 96 -187
100 -40 2 -91 0 -112 -6z m171 -37 c52 -23 94 -59 129 -111 24 -37 28 -52 28
-119 0 -66 -4 -84 -28 -124 -32 -55 -89 -104 -132 -113 -16 -4 -41 -11 -57
-17 -22 -8 -42 -6 -97 11 -60 19 -76 30 -119 77 -52 59 -61 84 -61 173 1 93
53 177 138 220 49 25 147 27 199 3z"/>
<path d="M617 782 c-10 -11 -17 -36 -17 -60 l0 -42 -43 0 c-53 0 -77 -22 -77
-71 0 -47 15 -59 72 -59 l48 0 0 -49 c0 -40 4 -53 22 -65 53 -38 107 -6 115
67 l6 47 43 0 c45 0 74 24 74 63 0 30 -45 67 -83 67 -33 0 -35 2 -40 41 -3 22
-13 49 -23 60 -22 24 -75 25 -97 1z m93 -89 c0 -46 4 -49 80 -55 24 -2 36 -8
38 -21 6 -31 -17 -47 -69 -47 l-49 0 0 -43 c0 -57 -18 -82 -53 -73 -25 6 -27
10 -27 61 l0 55 -44 0 c-62 0 -76 7 -76 41 0 28 2 29 48 29 58 0 72 12 72 64
0 23 7 47 17 58 16 18 17 18 40 -4 17 -16 23 -32 23 -65z"/>
</g>
</svg>
